#!OML:ASF F:\VICON\USERDATA\INSTALL\Justin_Nancy\Justin_Nancy.ASF
:FULLY-SPECIFIED
:DEGREES
101
root 0.546141 16.9682 11.0668 0.504358 36.8395 -4.91483
lowerback 13.8786 -0.406575 -0.155741
upperback 0.531953 -0.196123 4.33686
thorax -7.22348 0.00534391 4.75761
lowerneck -22.713 -4.48225 -7.99206
upperneck 15.787 -4.72027 5.65086
head 8.99932 -2.0792 2.56958
rclavicle 3.67752e-014 -5.24792e-014
rhumerus -36.2658 17.873 -88.6574
rradius 116.244
rwrist -31.9343
rhand -4.64714 22.7233
rfingers 7.12502
rthumb 21.1324 -6.145
lclavicle 3.67752e-014 -5.24792e-014
lhumerus -47.0274 -9.10544 99.7766
lradius 101.748
lwrist 29.6924
lhand -10.6288 10.9856
lfingers 7.12502
lthumb 15.378 40.3937
rfemur -11.467 1.58136 25.3017
rtibia 38.8885
rfoot -17.8763 -13.3404
rtoes -17.4958
lfemur -25.4845 7.59726 -13.4924
ltibia 91.2903
lfoot 5.66395 -11.5084
ltoes -3.56305
102
root 0.734564 17.0111 11.377 0.425556 37.215 -5.32773
lowerback 13.7832 -0.184385 0.569243
upperback 0.460979 0.210559 4.27915
thorax -7.27724 0.179326 4.19861
lowerneck -22.8597 -4.93127 -8.47127
upperneck 15.9074 -5.34492 6.44918
head 9.15141 -2.30844 2.83157
rclavicle 6.16232e-015 -4.92986e-014
rhumerus -36.2226 17.0246 -88.9005
rradius 117.36
rwrist -31.894
rhand -4.34727 23.1208
rfingers 7.12502
rthumb 21.4204 -5.71509
lclavicle 6.16232e-015 -4.92986e-014
lhumerus -47.4393 -9.26981 99.8359
lradius 102.122
lwrist 29.7666
lhand -9.79151 11.0861
lfingers 7.12502
lthumb 16.1844 40.4304
rfemur -9.70125 1.74384 25.7912
rtibia 37.8846
rfoot -17.3165 -13.2292
rtoes -21.3534
lfemur -27.4445 8.07961 -13.7791
ltibia 90.4987
lfoot 3.99862 -11.4814
ltoes -5.5083
103
root 0.919285 17.0762 11.702 0.173036 37.2651 -5.65889
lowerback 13.6858 0.175016 0.744646
upperback 0.606973 0.721723 4.43556
thorax -7.10182 0.424301 4.16097
lowerneck -23.1566 -5.30977 -8.98458
upperneck 16.0409 -5.78991 6.97365
head 9.31921 -2.48285 3.02846
rclavicle 3.18055e-014 4.37326e-014
rhumerus -35.8602 16.5356 -88.8518
rradius 118.365
rwrist -32.4656
rhand -4.23612 23.5774
rfingers 7.12502
rthumb 21.5272 -5.24631
lclavicle 3.18055e-014 4.37326e-014
lhumerus -47.8047 -9.60753 100.5
lradius 103.203
lwrist 31.7064
lhand -12.7722 14.2267
lfingers 7.12502
lthumb 13.3128 43.7815
rfemur -7.73783 2.19677 26.3474
rtibia 36.8974
rfoot -16.8978 -12.594
rtoes -20.0513
lfemur -28.8035 8.85974 -13.9888
ltibia 89.1974
lfoot 2.31114 -11.3783
ltoes -7.28046
104
root 1.11259 17.1562 12.003 0.394291 37.823 -5.68125
lowerback 13.6053 0.306658 1.06397
upperback 0.473735 0.943111 4.36075
thorax -7.20797 0.521513 3.85574
lowerneck -22.8907 -5.55942 -8.95417
upperneck 15.8221 -6.20531 7.19583
head 9.24063 -2.6543 3.03834
rclavicle -2.42517e-014 1.11319e-014
rhumerus -35.3982 16.3532 -88.9076
rradius 119.061
rwrist -33.2018
rhand -4.68554 23.746
rfingers 7.12502
rthumb 21.0955 -5.12645
lclavicle -2.42517e-014 1.11319e-014
lhumerus -48.3028 -9.56877 100.358
lradius 103.49
lwrist 31.1271
lhand -10.5992 12.3471
lfingers 7.12502
lthumb 15.4065 41.753
rfemur -6.32929 1.82294 26.4674
rtibia 36.1192
rfoot -15.7991 -11.9835
rtoes -18.5599
lfemur -30.6706 9.01002 -14.8632
ltibia 87.5629
lfoot 1.38757 -11.0054
ltoes -8.00298
105
root 1.32668 17.2525 12.3331 0.303683 38.0102 -5.71973
lowerback 13.5102 0.588308 1.34285
upperback 0.415112 1.3516 4.26531
thorax -7.23302 0.709264 3.51377
lowerneck -22.4461 -5.8226 -8.91016
upperneck 15.6557 -6.6385 7.31369
head 9.14761 -2.84974 3.00967
rclavicle -1.68967e-015 -2.62396e-014
rhumerus -34.7564 16.2369 -88.7915
rradius 119.368
rwrist -33.2926
rhand -4.90846 23.8943
rfingers 7.12502
rthumb 20.8814 -5.0019
lclavicle -1.68967e-015 -2.62396e-014
lhumerus -49.0285 -9.72993 100.304
lradius 103.848
lwrist 30.8289
lhand -9.15809 10.9069
lfingers 7.12502
lthumb 16.7943 40.2006
rfemur -4.47472 1.62095 26.6188
rtibia 35.3818
rfoot -14.0352 -11.6734
rtoes -19.3065
lfemur -31.553 9.45832 -15.6487
ltibia 85.3556
lfoot 0.472151 -10.3305
ltoes -7.5173
